<mxfile host="Electron" agent="Mozilla/5.0 (Macintosh; Intel Mac OS X 10_15_7) AppleWebKit/537.36 (KHTML, like Gecko) draw.io/24.7.5 Chrome/126.0.6478.183 Electron/31.3.0 Safari/537.36" version="24.7.5">
  <diagram name="Page-1" id="h2FR42WZXVLEfB94IF48">
    <mxGraphModel dx="949" dy="934" grid="1" gridSize="10" guides="1" tooltips="1" connect="1" arrows="1" fold="1" page="1" pageScale="1" pageWidth="850" pageHeight="1100" math="0" shadow="0">
      <root>
        <mxCell id="0" />
        <mxCell id="1" parent="0" />
        <mxCell id="edR6dUdQlGPa8ViLFu1w-7" style="edgeStyle=orthogonalEdgeStyle;rounded=0;orthogonalLoop=1;jettySize=auto;html=1;entryX=0;entryY=0.5;entryDx=0;entryDy=0;" parent="1" source="edR6dUdQlGPa8ViLFu1w-1" target="edR6dUdQlGPa8ViLFu1w-4" edge="1">
          <mxGeometry relative="1" as="geometry">
            <Array as="points">
              <mxPoint x="150" y="180" />
              <mxPoint x="150" y="220" />
            </Array>
          </mxGeometry>
        </mxCell>
        <mxCell id="edR6dUdQlGPa8ViLFu1w-1" value="Web Browser" style="verticalLabelPosition=bottom;sketch=0;aspect=fixed;html=1;verticalAlign=top;strokeColor=none;align=center;outlineConnect=0;shape=mxgraph.citrix.browser;" parent="1" vertex="1">
          <mxGeometry x="40" y="120" width="47.5" height="72.5" as="geometry" />
        </mxCell>
        <mxCell id="edR6dUdQlGPa8ViLFu1w-6" style="edgeStyle=orthogonalEdgeStyle;rounded=0;orthogonalLoop=1;jettySize=auto;html=1;exitX=0;exitY=0.5;exitDx=0;exitDy=0;" parent="1" source="edR6dUdQlGPa8ViLFu1w-2" target="edR6dUdQlGPa8ViLFu1w-1" edge="1">
          <mxGeometry relative="1" as="geometry">
            <mxPoint x="100" y="150" as="targetPoint" />
            <Array as="points">
              <mxPoint x="150" y="112" />
              <mxPoint x="150" y="156" />
            </Array>
          </mxGeometry>
        </mxCell>
        <mxCell id="edR6dUdQlGPa8ViLFu1w-2" value="" style="rounded=0;whiteSpace=wrap;html=1;fillColor=#6d8764;fontColor=#ffffff;strokeColor=#3A5431;" parent="1" vertex="1">
          <mxGeometry x="250" y="70" width="120" height="83.75" as="geometry" />
        </mxCell>
        <mxCell id="edR6dUdQlGPa8ViLFu1w-3" value="proto stub" style="rounded=0;whiteSpace=wrap;html=1;fillColor=#0050ef;strokeColor=#001DBC;fontColor=#ffffff;" parent="1" vertex="1">
          <mxGeometry x="265" y="130" width="90" height="20" as="geometry" />
        </mxCell>
        <mxCell id="edR6dUdQlGPa8ViLFu1w-4" value="" style="rounded=0;whiteSpace=wrap;html=1;fillColor=#76608a;strokeColor=#432D57;fontColor=#ffffff;" parent="1" vertex="1">
          <mxGeometry x="250" y="180" width="360" height="80" as="geometry" />
        </mxCell>
        <mxCell id="edR6dUdQlGPa8ViLFu1w-5" value="" style="rounded=0;whiteSpace=wrap;html=1;fillColor=#1ba1e2;fontColor=#ffffff;strokeColor=#006EAF;" parent="1" vertex="1">
          <mxGeometry x="480" y="190" width="120" height="60" as="geometry" />
        </mxCell>
        <mxCell id="edR6dUdQlGPa8ViLFu1w-9" style="edgeStyle=orthogonalEdgeStyle;rounded=0;orthogonalLoop=1;jettySize=auto;html=1;entryX=0;entryY=0.5;entryDx=0;entryDy=0;" parent="1" source="edR6dUdQlGPa8ViLFu1w-8" target="edR6dUdQlGPa8ViLFu1w-5" edge="1">
          <mxGeometry relative="1" as="geometry" />
        </mxCell>
        <mxCell id="edR6dUdQlGPa8ViLFu1w-8" value="gRPC-web&lt;div&gt;Connector&lt;/div&gt;" style="rounded=0;whiteSpace=wrap;html=1;fillColor=#647687;fontColor=#ffffff;strokeColor=#314354;" parent="1" vertex="1">
          <mxGeometry x="260" y="190" width="80" height="60" as="geometry" />
        </mxCell>
        <mxCell id="edR6dUdQlGPa8ViLFu1w-10" value="&lt;font style=&quot;font-size: 14px;&quot;&gt;port 8080&lt;/font&gt;" style="text;html=1;align=center;verticalAlign=middle;resizable=0;points=[];autosize=1;strokeColor=none;fillColor=none;" parent="1" vertex="1">
          <mxGeometry x="160" y="220" width="80" height="30" as="geometry" />
        </mxCell>
        <mxCell id="edR6dUdQlGPa8ViLFu1w-12" value="&lt;font style=&quot;font-size: 14px;&quot;&gt;port 8081&lt;/font&gt;" style="text;html=1;align=center;verticalAlign=middle;resizable=0;points=[];autosize=1;strokeColor=none;fillColor=none;" parent="1" vertex="1">
          <mxGeometry x="160" y="80" width="80" height="30" as="geometry" />
        </mxCell>
        <mxCell id="edR6dUdQlGPa8ViLFu1w-13" value="&lt;font style=&quot;font-size: 14px;&quot;&gt;port 50051&lt;/font&gt;" style="text;html=1;align=center;verticalAlign=middle;resizable=0;points=[];autosize=1;strokeColor=none;fillColor=none;" parent="1" vertex="1">
          <mxGeometry x="360" y="192.5" width="90" height="30" as="geometry" />
        </mxCell>
        <mxCell id="huJgDQ4q7ZtMzn3z_fZy-1" value="webpack&lt;div&gt;(JS)&lt;/div&gt;" style="text;html=1;align=center;verticalAlign=middle;resizable=0;points=[];autosize=1;strokeColor=none;fillColor=none;" parent="1" vertex="1">
          <mxGeometry x="275" y="80" width="70" height="40" as="geometry" />
        </mxCell>
        <mxCell id="huJgDQ4q7ZtMzn3z_fZy-3" value="&lt;pre style=&quot;margin-top: 0px;&quot;&gt;&lt;b&gt;Request&lt;/b&gt;&lt;br&gt;Content-Type : application/grpc-web-text&lt;br&gt;&lt;b&gt;&lt;br&gt;&lt;/b&gt;&lt;/pre&gt;&lt;pre style=&quot;margin-top: 0px;&quot;&gt;&lt;b&gt;Response&lt;/b&gt;&lt;br&gt;content-type : application/grpc-web-text+proto&lt;/pre&gt;&lt;div&gt;&lt;br&gt;&lt;/div&gt;" style="text;html=1;whiteSpace=wrap;overflow=hidden;rounded=0;" parent="1" vertex="1">
          <mxGeometry x="390" y="61.879999999999995" width="340" height="100" as="geometry" />
        </mxCell>
        <mxCell id="wK9COM_suBoCM6XmxAYK-2" value="&lt;span style=&quot;color: rgb(255, 255, 255); font-family: Helvetica; font-size: 12px; font-style: normal; font-variant-ligatures: normal; font-variant-caps: normal; font-weight: 400; letter-spacing: normal; orphans: 2; text-indent: 0px; text-transform: none; widows: 2; word-spacing: 0px; -webkit-text-stroke-width: 0px; white-space: normal; text-decoration-thickness: initial; text-decoration-style: initial; text-decoration-color: initial; float: none; display: inline !important;&quot;&gt;gRPC-server&lt;/span&gt;&lt;div style=&quot;forced-color-adjust: none; border-color: rgb(0, 0, 0); color: rgb(255, 255, 255); font-family: Helvetica; font-size: 12px; font-style: normal; font-variant-ligatures: normal; font-variant-caps: normal; font-weight: 400; letter-spacing: normal; orphans: 2; text-indent: 0px; text-transform: none; widows: 2; word-spacing: 0px; -webkit-text-stroke-width: 0px; white-space: normal; text-decoration-thickness: initial; text-decoration-style: initial; text-decoration-color: initial;&quot;&gt;(Go)&lt;/div&gt;" style="text;whiteSpace=wrap;html=1;align=center;" vertex="1" parent="1">
          <mxGeometry x="500" y="187.5" width="80" height="40" as="geometry" />
        </mxCell>
        <mxCell id="wK9COM_suBoCM6XmxAYK-3" value="proto stub" style="rounded=0;whiteSpace=wrap;html=1;fillColor=#0050ef;strokeColor=#001DBC;fontColor=#ffffff;" vertex="1" parent="1">
          <mxGeometry x="495" y="227.5" width="90" height="20" as="geometry" />
        </mxCell>
      </root>
    </mxGraphModel>
  </diagram>
</mxfile>
